#N canvas 467 267 700 690 12;
#N canvas 0 0 450 300 10;
#X array loop_L 44100 float 3;
#X coords 0 1 44099 -1 200 130 1 0 0;
#X restore 15 15 graph;
#N canvas 0 0 450 300 10;
#X array loop_R 44100 float 3;
#X coords 0 1 44099 -1 200 130 1 0 0;
#X restore 235 15 graph;
#X obj 50 185 loadbang;
#X msg 50 215 read -resize loop.wav loop_L loop_R;
#X obj 50 245 soundfiler;
#X obj 50 275 t b b;
#X obj 50 315 tabplay~ loop_L;
#X obj 260 315 tabplay~ loop_R;
#X obj 50 345 *~ 0.5;
#X obj 260 345 *~ 0.5;
#X obj 50 380 t b b;
#X obj 50 440 adc~ 3;
#X obj 50 470 mic_trigger~ 50;
#X obj 50 580 dac~ 1 2;
#X obj 260 580 dac~ 3 4;
#X obj 50 635 print In01_Delta;
#X obj 260 440 adc~ 5;
#X obj 260 470 mic_trigger~ 50;
#X obj 260 635 print In03_Delta;
#X obj 470 440 adc~ 7;
#X obj 470 470 mic_trigger~ 50;
#X obj 470 635 print In05_Delta;
#X obj 630 440 adc~ 9;
#X obj 630 470 mic_trigger~ 50;
#X obj 630 635 print In07_Delta;
#X connect 2 0 3 0;
#X connect 3 0 4 0;
#X connect 4 0 5 0;
#X connect 5 0 6 0;
#X connect 5 1 7 0;
#X connect 6 1 10 0;
#X connect 7 1 10 0;
#X connect 10 0 6 0;
#X connect 10 1 7 0;
#X connect 6 0 8 0;
#X connect 7 0 9 0;
#X connect 8 0 13 0;
#X connect 8 0 14 0;
#X connect 9 0 13 1;
#X connect 9 0 14 1;
#X connect 11 0 12 0;
#X connect 12 0 13 0;
#X connect 12 0 14 0;
#X connect 12 1 13 1;
#X connect 12 1 14 1;
#X connect 12 2 15 0;
#X connect 16 0 17 0;
#X connect 17 0 13 0;
#X connect 17 0 14 0;
#X connect 17 1 13 1;
#X connect 17 1 14 1;
#X connect 17 2 18 0;
#X connect 19 0 20 0;
#X connect 20 0 13 0;
#X connect 20 0 14 0;
#X connect 20 1 13 1;
#X connect 20 1 14 1;
#X connect 20 2 21 0;
#X connect 22 0 23 0;
#X connect 23 0 13 0;
#X connect 23 0 14 0;
#X connect 23 1 13 1;
#X connect 23 1 14 1;
#X connect 23 2 24 0;
