#N canvas 407 -856 1200 900 12;
#X text 20 10 ====== PHONOSIUM - Sound Installation | Main Patch ======;
#X text 20 35 Bela: 4 mics on adc~ 1 2 3 4\, summed and normalized *~ 0.25;
#X text 20 100 --- AUDIO INPUT (4 mics) ---;
#X obj 257 130 adc~ 1 2 3 4;
#X obj 257 165 +~;
#X obj 357 165 +~;
#X obj 307 200 +~;
#X obj 307 235 *~ 0.25;
#X text 104 280 --- EFFECTS CHAIN (serial): PitchShifter -> Granular -> Reverb ---;
#X obj 307 315 fx_pitchshift;
#X obj 307 355 fx_granular;
#X obj 307 395 fx_reverb;
#X obj 700 200 loop_player;
#X text 20 450 --- OUTPUT: mic FX + loop -> *~ 0.8 master -> DAC ---;
#X obj 307 480 +~;
#X obj 307 515 *~ 0.8;
#X obj 307 550 dac~ 1 2;
#X connect 3 0 4 0;
#X connect 3 1 4 1;
#X connect 3 2 5 0;
#X connect 3 3 5 1;
#X connect 4 0 6 0;
#X connect 5 0 6 1;
#X connect 6 0 7 0;
#X connect 7 0 9 0;
#X connect 9 0 10 0;
#X connect 10 0 11 0;
#X connect 11 0 14 0;
#X connect 12 0 14 1;
#X connect 14 0 15 0;
#X connect 15 0 16 0;
#X connect 15 0 16 1;
