#N canvas 407 -856 1200 900 12;
#X text 20 10 ====== PHONOSIUM - Sound Installation | Main Patch ======;
#X text 20 35 Bela: 4 mics on adc~ 1 2 3 4\, summed and normalized *~ 0.25;
#X text 20 100 --- AUDIO INPUT (4 mics) ---;
#X obj 257 130 adc~ 1 2 3 4;
#X obj 257 165 +~;
#X obj 357 165 +~;
#X obj 307 200 +~;
#X obj 307 235 *~ 0.25;
#X obj 307 255 hip~ 80;
#X text 104 285 --- EFFECTS CHAIN (serial): PitchShifter -> Granular -> Reverb ---;
#X obj 307 320 fx_pitchshift;
#X obj 307 360 fx_granular;
#X obj 307 400 fx_reverb;
#X obj 700 200 loop_player;
#X obj 700 230 *~ 0.3;
#X text 20 455 --- OUTPUT: mic FX + loop + samples -> *~ 0.8 -> clip~ -1 1 -> DAC ---;
#X obj 307 485 +~;
#X obj 307 520 +~;
#X obj 307 555 *~ 0.6;
#X obj 307 588 clip~ -1 1;
#X obj 307 620 dac~ 1 2;
#X obj 700 320 sample_trigger;
#X obj 700 350 *~ 0.3;
#X connect 3 0 4 0;
#X connect 3 1 4 1;
#X connect 3 2 5 0;
#X connect 3 3 5 1;
#X connect 4 0 6 0;
#X connect 5 0 6 1;
#X connect 6 0 7 0;
#X connect 7 0 8 0;
#X connect 8 0 10 0;
#X connect 10 0 11 0;
#X connect 11 0 12 0;
#X connect 12 0 16 0;
#X connect 13 0 14 0;
#X connect 14 0 16 1;
#X connect 16 0 17 0;
#X connect 8 0 21 0;
#X connect 21 0 22 0;
#X connect 22 0 17 1;
#X connect 17 0 18 0;
#X connect 18 0 19 0;
#X connect 19 0 20 0;
#X connect 19 0 20 1;
