#N canvas 0 0 560 400 10;
#X text 10 10 FX_REVERB - multi-tap delay reverb;
#X text 10 25 MIX (0.0 to 1.0): dry/wet blend;
#X text 10 40 -----------------------------------------------------;
#X obj 100 80 inlet~;
#X text 310 80 MIX wet (0-1);
#X floatatom 310 95 5 0 1 0 0 0;
#X obj 100 115 delwrite~ rvbuf 2200;
#X obj 60 155 delread~ rvbuf 347;
#X obj 160 155 delread~ rvbuf 743;
#X obj 270 155 delread~ rvbuf 1153;
#X obj 380 155 delread~ rvbuf 1657;
#X obj 60 190 *~ 0.30;
#X obj 160 190 *~ 0.25;
#X obj 270 190 *~ 0.20;
#X obj 380 190 *~ 0.15;
#X obj 100 230 +~;
#X obj 300 230 +~;
#X obj 200 265 +~;
#X obj 200 300 *~;
#X obj 100 275 expr 1 - $f1;
#X obj 100 300 *~;
#X obj 150 335 +~;
#X obj 150 370 outlet~;
#X connect 3 0 6 0;
#X connect 3 0 20 0;
#X connect 7 0 11 0;
#X connect 8 0 12 0;
#X connect 9 0 13 0;
#X connect 10 0 14 0;
#X connect 11 0 15 0;
#X connect 12 0 15 1;
#X connect 13 0 16 0;
#X connect 14 0 16 1;
#X connect 15 0 17 0;
#X connect 16 0 17 1;
#X connect 17 0 18 0;
#X connect 5 0 18 1;
#X connect 5 0 19 0;
#X connect 19 0 20 1;
#X connect 18 0 21 0;
#X connect 20 0 21 1;
#X connect 21 0 22 0;
#X obj 60 405 loadbang;
#X obj 60 435 f 0.5;
#X connect 23 0 24 0;
#X connect 24 0 5 0;
