#N canvas 530 88 560 420 10;
#X text 10 10 LOOP_PLAYER - soundfiler + tabread4~ with debug;
#X text 10 25 -----------------------------------------------------;
#X obj 100 120 table looptable 1;
#X obj 100 165 loadbang;
#X msg 100 195 read -resize /root/Bela/projects/Phonosium/loop.wav looptable;
#X obj 100 225 soundfiler;
#X obj 100 255 print NFRAMES;
#X obj 100 290 t f f;
#X obj 60 330 expr 44100 / $f1;
#X obj 60 360 print FREQ;
#X obj 220 330 phasor~ 0;
#X obj 220 360 *~;
#X obj 220 390 tabread4~ looptable;
#X obj 220 420 outlet~;
#X connect 3 0 4 0;
#X connect 4 0 5 0;
#X connect 5 0 6 0;
#X connect 6 0 7 0;
#X connect 7 0 8 0;
#X connect 8 0 9 0;
#X connect 8 1 11 1;
#X connect 9 0 10 0;
#X connect 9 0 11 0;
#X connect 10 0 9 0;
#X connect 11 0 12 0;
#X connect 12 0 13 0;
