#N canvas 100 100 560 660 12;
#X obj 130 30 inlet~;
#X obj 60 65 env~ 512;
#X obj 210 65 env~ 32768;
#X obj 130 95 -;
#X obj 130 115 moses 0;
#X obj 145 135 > 25;
#X obj 145 155 change;
#X obj 145 175 select 1;
#X obj 145 200 spigot 0;
#X obj 145 230 t b b;
#X msg 100 260 0;
#X obj 240 230 random 24;
#X obj 240 255 + 1;
#X obj 240 280 makefilename %d.wav;
#X obj 240 310 symbol;
#X msg 240 340 open \$1 \, 1;
#X obj 220 440 readsf~ 2;
#X obj 430 30 loadbang;
#X obj 430 65 t b b;
#X obj 430 100 metro 2000;
#X obj 430 130 f;
#X msg 280 200 1;
#X obj 220 480 *~ 0.25;
#X obj 330 480 *~ 0.25;
#X obj 70 570 outlet~;
#X obj 180 570 outlet~;
#X obj 390 570 outlet;
#X obj 220 520 delay 500;
#X obj 430 160 delay 2000;
#X connect 0 0 1 0;
#X connect 0 0 2 0;
#X connect 1 0 3 0;
#X connect 2 0 3 1;
#X connect 3 0 4 0;
#X connect 3 0 20 1;
#X connect 4 1 5 0;
#X connect 5 0 6 0;
#X connect 6 0 7 0;
#X connect 7 0 8 0;
#X connect 8 0 9 0;
#X connect 9 0 10 0;
#X connect 10 0 8 1;
#X connect 9 1 11 0;
#X connect 11 0 12 0;
#X connect 12 0 13 0;
#X connect 13 0 14 0;
#X connect 14 0 15 0;
#X connect 15 0 16 0;
#X connect 16 0 22 0;
#X connect 16 1 23 0;
#X connect 16 2 27 0;
#X connect 22 0 24 0;
#X connect 23 0 25 0;
#X connect 27 0 21 0;
#X connect 21 0 8 1;
#X connect 17 0 18 0;
#X connect 18 0 19 0;
#X connect 18 1 28 0;
#X connect 19 0 20 0;
#X connect 20 0 26 0;
#X connect 28 0 21 0;
